<svg width="49" height="57" viewBox="0 0 49 57" fill="none" xmlns="http://www.w3.org/2000/svg">
<path d="M44.1529 0.471436C44.4337 0.554548 44.7173 0.630369 44.9953 0.723688C47.2195 1.47024 48.6543 3.54804 48.6571 6.07056C48.6641 13.1045 48.6599 20.1384 48.6599 27.1737C48.6599 32.6591 48.6543 38.1445 48.6683 43.6299C48.6697 44.2029 48.4992 44.6331 48.1122 45.0341C44.6349 48.6472 41.1659 52.2677 37.7039 55.8969C37.3183 56.3008 36.9033 56.4714 36.3557 56.4714C26.298 56.4598 16.2403 56.4641 6.18263 56.4627C2.90085 56.4627 0.669695 54.1239 0.668297 50.6886C0.6669 43.1618 0.668297 35.6366 0.668297 28.1098C0.668297 27.9465 0.659915 27.7803 0.675283 27.6184C0.732564 27.0337 1.18243 26.608 1.7273 26.6109C2.26797 26.6138 2.70806 27.0469 2.75835 27.6403C2.77372 27.8211 2.76534 28.0048 2.76534 28.1871C2.76534 35.6584 2.76534 43.1298 2.76534 50.6026C2.76534 52.9676 4.02691 54.2741 6.30697 54.2741C15.8757 54.2741 25.4444 54.2741 35.0131 54.2741C35.2031 54.2741 35.3945 54.2741 35.6627 54.2741C35.6627 54.0568 35.6627 53.8643 35.6627 53.6733C35.6627 51.6874 35.6585 49.7 35.6641 47.7141C35.6725 44.8999 37.5893 42.9096 40.2955 42.9023C42.3548 42.8965 44.4155 42.9008 46.5601 42.9008C46.5601 42.6923 46.5601 42.5013 46.5601 42.3118C46.5601 30.2839 46.5601 18.2574 46.5601 6.22949C46.5601 4.01172 45.2622 2.66297 43.1288 2.66297C30.819 2.66151 18.5092 2.66151 6.1994 2.66297C4.06603 2.66297 2.76953 4.01172 2.76813 6.22949C2.76673 9.63709 2.76813 13.0447 2.76673 16.4523C2.76673 16.6345 2.77651 16.8183 2.75416 16.9976C2.6871 17.5561 2.24143 17.9672 1.72171 17.9658C1.1978 17.9643 0.750726 17.559 0.680871 17.0049C0.658518 16.8255 0.668297 16.6404 0.668297 16.4596C0.668297 13.0695 0.6669 9.68083 0.668297 6.29073C0.669695 3.25788 2.21768 1.23111 5.0454 0.554548C5.0915 0.542883 5.13202 0.500598 5.17532 0.471436C18.1669 0.471436 31.1599 0.471436 44.1529 0.471436Z" fill="white"/>
<path d="M14.9763 48.3671C15.1607 48.3671 15.3437 48.3671 15.5282 48.3671C19.9625 48.3671 24.3983 48.3671 28.8327 48.3685C29.0409 48.3685 29.2574 48.3642 29.4558 48.4181C29.9336 48.5479 30.2452 49.0261 30.2158 49.5277C30.1865 50.0279 29.8204 50.458 29.3356 50.5397C29.1652 50.5688 28.9878 50.5586 28.8131 50.5586C21.5496 50.5601 14.2861 50.5601 7.02264 50.5586C5.81276 50.5586 5.4076 50.0147 5.72055 48.8016C6.68315 45.0586 7.64155 41.3157 8.62511 37.5786C8.71732 37.2286 8.90593 36.8612 9.14902 36.606C17.0775 28.3094 25.0158 20.023 32.9583 11.7424C34.8165 9.80603 37.327 9.81478 39.1949 11.7468C40.3853 12.9789 41.57 14.2168 42.7506 15.4576C44.659 17.4625 44.6464 20.0609 42.7058 22.0862C35.2146 29.9104 27.6996 37.7112 20.2434 45.5719C19.1201 46.7559 17.9549 47.6497 16.3594 47.8903C15.8872 47.9617 15.4304 48.1469 14.9665 48.2796C14.9679 48.3102 14.9721 48.3394 14.9763 48.3671ZM29.5508 18.6334C23.4944 24.9528 17.417 31.2941 11.4277 37.5421C13.6365 39.8474 15.8886 42.1964 18.0862 44.4885C24.1007 38.2114 30.1683 31.8788 36.201 25.5827C33.995 23.276 31.7554 20.9357 29.5508 18.6334ZM37.9236 23.9001C39.0999 22.6796 40.2931 21.4782 41.4443 20.2329C42.2518 19.3595 42.2294 18.1099 41.4079 17.2322C40.1408 15.8747 38.8555 14.5347 37.5562 13.2107C36.655 12.2906 35.4633 12.3038 34.565 13.2238C33.5046 14.3087 32.4623 15.411 31.4131 16.5075C31.3056 16.6198 31.2105 16.7422 31.1421 16.8224C33.411 19.1904 35.6547 21.5321 37.9236 23.9001ZM10.2248 39.7818C9.88948 41.0897 9.54719 42.3859 9.23564 43.6909C9.20071 43.8397 9.28454 44.0773 9.39211 44.194C10.1424 45.0061 10.9108 45.8023 11.6834 46.5926C11.7839 46.6946 11.9614 46.8229 12.0676 46.7952C13.3557 46.454 14.6368 46.0866 15.9096 45.7279C14.0067 43.7376 12.1374 41.7823 10.2248 39.7818Z" fill="white"/>
<path d="M1.73234 23.871C1.15255 23.8768 0.664964 23.3694 0.671949 22.7672C0.677538 22.1854 1.14277 21.6999 1.70301 21.6896C2.28001 21.678 2.76899 22.1869 2.762 22.792C2.75502 23.3752 2.28839 23.8666 1.73234 23.871Z" fill="white"/>
<path d="M31.8256 27.2395C31.7515 27.3766 31.6523 27.7017 31.447 27.919C29.1278 30.3642 26.796 32.7963 24.4587 35.2212C23.9641 35.7344 23.3172 35.73 22.8758 35.262C22.4259 34.7837 22.4329 34.1495 22.9428 33.6143C25.2676 31.1749 27.6007 28.7443 29.9339 26.3151C30.2832 25.9505 30.6953 25.8076 31.1731 26.0278C31.5978 26.2217 31.8158 26.5673 31.8256 27.2395Z" fill="white"/>
<path d="M19.3093 37.8268C19.3316 37.21 19.8443 36.7186 20.4479 36.7376C21.0319 36.7551 21.4999 37.2567 21.4929 37.8603C21.4859 38.4975 20.9425 39.0254 20.3319 38.9874C19.7675 38.951 19.2883 38.4086 19.3093 37.8268Z" fill="white"/>
</svg>
