<svg width="60" height="60" viewBox="0 0 60 60" fill="none" xmlns="http://www.w3.org/2000/svg">
<path d="M6.26173 32.0669C5.66702 31.0701 5.22374 29.9772 5.42251 28.8291C5.58972 27.8623 5.20482 27.3166 4.57067 26.7205C3.3355 25.5613 2.15238 24.3454 0.972423 23.1279C0.794168 22.9418 0.667969 22.6216 0.667969 22.3645C0.674279 19.9468 2.58935 17.8887 4.99659 17.7294C5.41935 17.701 5.85474 17.8793 6.33114 17.9707C6.33114 17.8903 6.33114 17.6853 6.33114 17.4787C6.33114 12.9256 6.32956 8.37247 6.33114 3.82095C6.33272 1.81015 7.47639 0.666748 9.48453 0.666748C25.059 0.666748 40.632 0.666748 56.2049 0.666748C58.1768 0.666748 59.3331 1.81803 59.3331 3.7831C59.3346 16.2186 59.3346 28.6556 59.3331 41.0911C59.3331 43.023 58.1689 44.1916 56.2475 44.1916C49.7814 44.1932 43.3153 44.1932 36.8492 44.1932C36.6409 44.1932 36.4327 44.1932 36.275 44.1932C36.4453 44.6616 36.6267 45.0843 36.7545 45.5227C37.2735 47.297 37.7673 49.0791 38.2926 50.8533C38.3793 51.1451 38.5323 51.4369 38.7201 51.6766C39.7896 53.0408 40.8639 54.4034 41.9728 55.736C42.2741 56.0972 42.3341 56.4584 42.2726 56.8794C42.0896 58.1301 41.1147 59.1079 39.8606 59.3082C39.411 59.3807 39.0419 59.294 38.668 58.9833C37.3508 57.8872 36.0036 56.8258 34.6533 55.7692C34.4119 55.5799 34.1248 55.4206 33.833 55.3339C31.9085 54.7661 29.9745 54.2315 28.0515 53.6606C27.766 53.5754 27.4726 53.4067 27.2612 53.1985C24.7972 50.7571 22.3458 48.3016 19.8959 45.8444C19.7303 45.6789 19.6073 45.4707 19.4227 45.2294C19.2571 45.4533 19.1782 45.5558 19.1056 45.6615C17.9982 47.2843 15.9254 47.5083 14.5041 46.1331C13.4424 45.1048 12.4092 44.0466 11.3649 43.0009C9.50188 41.1336 7.70197 39.1922 5.74589 37.4211C4.00908 35.8488 3.90024 33.3979 6.26173 32.0669ZM57.4417 10.1704C40.9948 10.1704 24.6252 10.1704 8.26671 10.1704C8.24778 10.2477 8.23043 10.2855 8.23043 10.3234C8.22728 12.6291 8.22412 14.9348 8.2257 17.2405C8.2257 18.2057 7.96699 19.2876 8.32035 20.103C8.69263 20.9625 9.65648 21.5665 10.3616 22.2809C10.3758 22.2951 10.3884 22.3141 10.4058 22.3204C10.6124 22.3929 10.8333 22.5522 11.0226 22.5207C13.0591 22.1895 14.7312 22.855 16.162 24.2902C22.0113 30.1491 27.8701 35.9954 33.7163 41.856C34.0302 42.1714 34.3362 42.3133 34.7905 42.3117C41.8671 42.2975 48.9437 42.3023 56.0203 42.3007C57.1861 42.3007 57.4417 42.0452 57.4417 40.8813C57.4417 30.8699 57.4417 20.8584 57.4417 10.8485C57.4417 10.6356 57.4417 10.4211 57.4417 10.1704ZM8.22728 8.19584C24.6741 8.19584 41.0421 8.19584 57.4417 8.19584C57.4417 6.77802 57.4417 5.40121 57.4417 4.02282C57.4417 2.80372 57.2019 2.55927 56.0061 2.55927C40.5531 2.55927 25.1001 2.55927 9.64701 2.55927C9.48926 2.55927 9.33152 2.55139 9.17377 2.56243C8.6106 2.60343 8.23832 2.94093 8.23201 3.5008C8.21466 5.05425 8.22728 6.6077 8.22728 8.19584ZM25.0922 48.4577C27.2486 46.3097 29.3056 44.261 31.3848 42.1887C29.5391 40.3467 27.6445 38.4541 25.75 36.5616C22.0571 32.8696 18.3705 29.1729 14.6697 25.4888C13.0922 23.918 10.9405 23.9306 9.35202 25.484C9.11225 25.719 8.8772 25.9572 8.64058 26.1937C6.79492 28.0421 6.79808 30.0734 8.65162 31.9265C14.0293 37.3044 19.4085 42.6808 24.7846 48.0603C24.925 48.1991 25.0275 48.3725 25.0922 48.4577ZM7.29656 33.6392C6.98106 33.9342 6.62771 34.155 6.43368 34.472C6.17812 34.8883 6.36427 35.311 6.69712 35.6453C9.73378 38.6844 12.7689 41.7235 15.8134 44.7562C16.3182 45.2593 16.9476 45.2625 17.3846 44.8114C17.8058 44.3762 17.8026 43.7658 17.3231 43.2832C14.2911 40.2394 11.2529 37.2019 8.20519 34.1755C7.99539 33.9673 7.68304 33.8632 7.29656 33.6392ZM30.0423 52.2317C30.0628 52.2506 30.0739 52.2727 30.0896 52.2775C31.1844 52.5945 32.2981 52.8594 33.3692 53.2442C34.1469 53.5234 34.6123 53.3388 35.2543 52.8058C36.3444 51.9021 36.581 51.0047 36.0289 49.7289C35.6597 48.8756 35.4831 47.9388 35.2259 47.0541C33.4781 48.7999 31.7665 50.5095 30.0423 52.2317ZM8.7368 23.3345C7.76034 22.3598 6.70658 21.3063 5.65282 20.2544C4.93507 19.5384 4.54858 19.4516 3.77877 20.1298C3.30237 20.5493 3.00265 21.1738 2.65875 21.729C2.5925 21.8346 2.63351 22.1012 2.72501 22.1958C3.92863 23.4275 5.1496 24.6419 6.29328 25.7853C7.12461 24.951 7.91336 24.1593 8.7368 23.3345ZM34.1753 45.171C33.7242 44.6821 33.2746 44.1964 32.8865 43.7737C30.8295 45.835 28.7803 47.8884 26.8227 49.8503C27.2391 50.2903 27.7045 50.7808 28.1146 51.2161C30.1385 49.1974 32.1814 47.1598 34.1753 45.171ZM37.5827 53.3026C37.0889 53.7331 36.6362 54.1274 36.1661 54.539C37.2924 55.4411 38.3841 56.3054 39.4631 57.187C39.7155 57.3936 39.9079 57.3731 40.124 57.157C40.3417 56.9394 40.3528 56.7454 40.1477 56.4946C39.2659 55.4159 38.4014 54.3245 37.5827 53.3026Z" fill="white"/>
<path d="M55.5233 12.0645C55.5233 18.365 55.5233 24.6245 55.5233 30.9156C46.7131 30.9156 37.928 30.9156 29.0957 30.9156C29.0957 24.6545 29.0957 18.3808 29.0957 12.0645C37.876 12.0645 46.6752 12.0645 55.5233 12.0645ZM30.9508 25.2695C32.9306 25.2695 34.8567 25.268 36.7828 25.2695C38.2956 25.2711 39.5891 24.7444 40.6602 23.6751C41.2881 23.049 41.9096 22.4166 42.5422 21.7952C45.3454 19.0416 49.2717 18.8444 52.3399 21.2984C52.7469 21.6233 53.1587 21.945 53.6082 22.3014C53.6082 19.4532 53.6082 16.6933 53.6082 13.9633C46.0268 13.9633 38.4928 13.9633 30.9508 13.9633C30.9508 17.7341 30.9508 21.4561 30.9508 25.2695ZM53.654 29.042C53.654 27.6525 53.665 26.3167 53.6398 24.9809C53.6366 24.8264 53.4678 24.6419 53.329 24.5283C52.5529 23.8896 51.7736 23.254 50.9754 22.6437C48.7496 20.9404 45.9511 21.1186 43.9367 23.0821C43.301 23.7019 42.6794 24.3343 42.0532 24.962C40.5719 26.4476 38.7846 27.1778 36.6866 27.1636C35.0302 27.1526 33.3738 27.1621 31.7175 27.1621C31.4698 27.1621 31.2222 27.1621 30.9855 27.1621C30.9855 27.8402 30.9855 28.4379 30.9855 29.042C38.5448 29.042 46.0552 29.042 53.654 29.042Z" fill="white"/>
<path d="M34.7539 34.6926C34.7539 34.0634 34.7539 33.4798 34.7539 32.8679C41.6728 32.8679 48.5648 32.8679 55.501 32.8679C55.501 33.4578 55.501 34.0539 55.501 34.6926C48.6074 34.6926 41.7027 34.6926 34.7539 34.6926Z" fill="white"/>
<path d="M10.1445 17.6586C10.1445 17.0356 10.1445 16.4521 10.1445 15.8386C15.7998 15.8386 21.4283 15.8386 27.1056 15.8386C27.1056 16.4206 27.1056 17.0183 27.1056 17.6586C21.4803 17.6586 15.8377 17.6586 10.1445 17.6586Z" fill="white"/>
<path d="M27.1277 19.6345C27.1277 20.2543 27.1277 20.8379 27.1277 21.4529C21.4598 21.4529 15.8172 21.4529 10.1445 21.4529C10.1445 20.8442 10.1445 20.2606 10.1445 19.6345C15.7888 19.6345 21.4314 19.6345 27.1277 19.6345Z" fill="white"/>
<path d="M34.7539 38.4779C34.7539 37.8502 34.7539 37.2667 34.7539 36.6548C40.4108 36.6548 46.0392 36.6548 51.715 36.6548C51.715 37.2415 51.715 37.8392 51.715 38.4779C46.085 38.4779 40.4423 38.4779 34.7539 38.4779Z" fill="white"/>
<path d="M27.1263 12.063C27.1263 12.6875 27.1263 13.271 27.1263 13.8845C22.733 13.8845 18.365 13.8845 13.9512 13.8845C13.9512 13.301 13.9512 12.7033 13.9512 12.063C18.3161 12.063 22.6967 12.063 27.1263 12.063Z" fill="white"/>
<path d="M10.1445 13.8829C10.1445 13.2709 10.1445 12.689 10.1445 12.0645C10.744 12.0645 11.3403 12.0645 11.9744 12.0645C11.9744 12.659 11.9744 13.2552 11.9744 13.8829C11.3781 13.8829 10.796 13.8829 10.1445 13.8829Z" fill="white"/>
<path d="M55.5216 36.6675C55.5216 37.2889 55.5216 37.8708 55.5216 38.4859C54.9158 38.4859 54.3322 38.4859 53.7012 38.4859C53.7012 37.9055 53.7012 37.3078 53.7012 36.6675C54.2785 36.6675 54.8748 36.6675 55.5216 36.6675Z" fill="white"/>
<path d="M11.9754 6.3334C11.3491 6.3334 10.7812 6.3334 10.166 6.3334C10.166 5.72937 10.166 5.13165 10.166 4.49292C10.7465 4.49292 11.3412 4.49292 11.9754 4.49292C11.9754 5.08906 11.9754 5.68521 11.9754 6.3334Z" fill="white"/>
<path d="M13.916 6.30652C13.916 5.68514 13.916 5.11738 13.916 4.50073C14.5155 4.50073 15.1133 4.50073 15.7538 4.50073C15.7538 5.07638 15.7538 5.67252 15.7538 6.30652C15.1622 6.30652 14.5659 6.30652 13.916 6.30652Z" fill="white"/>
<path d="M17.7168 4.47559C18.3399 4.47559 18.922 4.47559 19.5435 4.47559C19.5435 5.08593 19.5435 5.68207 19.5435 6.31134C18.9378 6.31134 18.3415 6.31134 17.7168 6.31134C17.7168 5.70415 17.7168 5.1222 17.7168 4.47559Z" fill="white"/>
<path d="M35.6991 15.8084C37.2671 15.821 38.537 17.1269 38.5101 18.7008C38.4849 20.2401 37.1929 21.4955 35.6454 21.4828C34.079 21.4702 32.8091 20.1628 32.8344 18.5889C32.8612 17.0496 34.15 15.7974 35.6991 15.8084ZM35.6754 19.5872C36.1865 19.5856 36.6156 19.155 36.614 18.6425C36.6124 18.1299 36.1818 17.7025 35.6691 17.7041C35.1564 17.7057 34.7289 18.1347 34.7305 18.6488C34.7321 19.1613 35.1627 19.5887 35.6754 19.5872Z" fill="white"/>
</svg>
