<svg width="59" height="62" viewBox="0 0 59 62" fill="none" xmlns="http://www.w3.org/2000/svg">
<path d="M35.8325 0.333496C36.3462 0.576261 36.871 0.803055 37.3737 1.06818C37.8134 1.30136 38.2263 1.2806 38.6755 1.09693C40.5052 0.346273 41.7628 1.32372 41.435 3.33452C41.2648 4.38065 40.9086 5.42198 40.4752 6.38985C39.941 7.58291 39.2397 8.69931 38.5888 9.88758C39.4052 10.6526 39.7519 11.6412 39.6384 12.8151C39.6226 12.9733 39.807 13.1921 39.952 13.3166C40.8078 14.0513 41.6887 14.7573 42.546 15.4919C43.0898 15.9583 43.1638 16.4582 42.7982 16.891C42.4342 17.3239 41.9409 17.3095 41.3956 16.8527C40.606 16.1931 39.8212 15.5255 39.0175 14.8818C38.893 14.7812 38.6282 14.6934 38.5242 14.7589C37.1799 15.5942 35.6623 15.7491 34.1556 15.8577C31.9115 16.019 29.6673 15.9663 27.4625 15.4233C27.2529 15.3722 27.0134 15.3498 26.8448 15.2316C26.1498 14.7445 25.6707 15.0767 25.1144 15.5446C21.3919 18.6671 18.147 22.1919 15.9186 26.5825C14.2985 29.7736 13.3782 33.1435 13.4995 36.7626C13.5106 37.1012 13.52 37.4462 13.5925 37.7736C13.6256 37.9254 13.7879 38.1298 13.9282 38.1649C15.9738 38.6952 17.8287 39.6567 19.5969 40.7858C21.4818 41.9869 23.5888 42.276 25.7337 42.5028C28.3167 42.7759 30.9076 43.0234 33.4717 43.4371C36.2517 43.8859 38.0609 46.2113 38.0483 49.0526C38.0467 49.2491 38.0483 49.4455 38.0483 49.733C38.5305 49.527 38.9434 49.3577 39.35 49.1772C42.4452 47.7957 45.542 46.4173 48.6293 45.0167C48.8956 44.8953 49.1604 44.6669 49.3164 44.4193C51.2611 41.3305 51.8679 37.9238 51.4896 34.3318C50.9144 28.8536 48.3251 24.3369 44.8091 20.285C44.6799 20.1348 44.5349 19.9959 44.4183 19.8362C44.1126 19.4177 44.152 18.9082 44.5018 18.5936C44.8501 18.279 45.3702 18.2853 45.7263 18.6559C46.1377 19.0839 46.5253 19.5391 46.902 19.9991C49.7576 23.484 51.9309 27.3283 52.8828 31.8003C53.7196 35.7245 53.5321 39.5688 51.9309 43.2901C51.9072 43.3445 51.9041 43.4051 51.8631 43.5824C52.235 43.4179 52.5313 43.247 52.8497 43.1528C53.5431 42.95 54.2412 42.6705 54.9504 42.6305C56.6209 42.5363 58.0393 43.6543 58.5121 45.2946C58.9817 46.9236 58.3671 48.6565 56.9913 49.5414C51.622 52.9912 46.248 56.433 40.8818 59.886C39.0191 61.0855 36.9955 61.6716 34.7892 61.6668C30.5341 61.6557 26.279 61.6572 22.0255 61.6668C20.5898 61.67 19.2108 61.4161 17.8681 60.905C15.1622 59.8764 12.4515 58.8575 9.74402 57.8353C9.59904 57.781 9.44932 57.7395 9.27281 57.6836C9.22238 57.9679 9.18771 58.2202 9.13413 58.4694C8.88513 59.6081 7.93325 60.4498 6.7891 60.4738C5.33134 60.5041 3.87357 60.5073 2.41739 60.4722C1.07467 60.4402 0.0282315 59.327 0.0156238 57.9343C-0.00486366 55.7782 0.00774402 53.622 0.00774402 51.4659C0.00774402 46.7543 0.00616806 42.0428 0.00774402 37.3328C0.00774402 35.3683 1.01163 34.3621 2.96267 34.3621C4.06584 34.3621 5.16901 34.3621 6.27218 34.3621C8.13182 34.3637 9.12309 35.3108 9.22238 37.1795C9.22711 37.2753 9.24917 37.3712 9.26651 37.4893C10.0844 37.5532 10.8834 37.6171 11.7077 37.681C11.7234 37.5963 11.7549 37.5213 11.7502 37.4494C11.4524 32.0671 13.1465 27.2804 16.0179 22.8564C18.27 19.3874 21.1303 16.4886 24.3216 13.9076C24.4603 13.7958 24.5974 13.6824 24.733 13.5674C24.7613 13.5434 24.7787 13.5067 24.93 13.2943C23.9087 13.4364 23.0215 13.4987 22.1626 13.6904C20.3628 14.0913 18.79 14.8834 17.7594 16.5397C17.4615 17.0188 16.9399 17.0875 16.5238 16.7904C16.1204 16.5045 16.0289 16.0126 16.3221 15.5191C17.1558 14.1152 18.3882 13.1873 19.8522 12.5516C21.1871 11.9718 22.5928 11.7003 24.0348 11.5949C24.2854 11.5774 24.5344 11.5678 24.7976 11.5534C24.3973 10.5775 22.919 9.69752 21.6425 9.67516C20.7773 9.65919 19.909 9.73106 19.0469 9.67836C17.7452 9.6001 16.5553 9.13054 15.46 8.42301C14.9163 8.07164 14.7792 7.56854 15.0739 7.10696C15.3529 6.66935 15.8509 6.56553 16.3678 6.89295C17.7058 7.73943 19.1525 8.05247 20.7159 7.89595C22.5881 7.70749 24.2098 8.27607 25.5808 9.58572C25.8582 9.85085 25.8677 9.84127 26.2758 9.541C25.8976 8.87819 25.4973 8.22017 25.1411 7.53979C24.4304 6.18062 23.7196 4.80868 23.6471 3.2339C23.6235 2.71483 23.7102 2.14625 23.9103 1.6719C24.2917 0.763127 25.0797 0.454879 25.9512 0.902078C26.7864 1.33011 27.5035 1.32213 28.26 0.766321C28.5373 0.563484 28.8967 0.475641 29.2197 0.33669C29.6137 0.33669 30.0077 0.33669 30.4017 0.33669C30.9044 0.587441 31.4103 0.831804 31.9083 1.09214C32.3638 1.33011 32.7987 1.29657 33.2495 1.06499C33.7506 0.806249 34.266 0.577858 34.775 0.33669C35.1233 0.333496 35.4779 0.333496 35.8325 0.333496ZM36.2737 50.2537C36.2737 49.7969 36.2722 49.4216 36.2737 49.0478C36.2863 47.0961 35.0429 45.5373 33.1644 45.1764C32.7404 45.0949 32.3055 45.0646 31.8752 45.0151C29.0196 44.6845 26.1624 44.3666 23.3099 44.0216C21.2265 43.7709 19.4614 42.7024 17.638 41.7569C16.1928 41.0078 14.6831 40.361 13.1497 39.818C11.9125 39.3804 10.584 39.3069 9.21608 39.3404C9.21608 40.131 9.22238 40.8673 9.2145 41.602C9.20662 42.3414 8.86306 42.7551 8.28941 42.7359C7.74098 42.7168 7.44785 42.3287 7.4447 41.5972C7.43997 40.1598 7.44627 38.7223 7.44155 37.2849C7.43839 36.4352 7.17363 36.1621 6.35571 36.1589C5.17374 36.1541 3.99177 36.1541 2.8098 36.1589C2.04388 36.1621 1.77597 36.4288 1.77439 37.1987C1.77124 44.0264 1.77124 50.8542 1.77439 57.6804C1.77439 58.431 2.02655 58.6834 2.76883 58.6866C3.93031 58.693 5.09337 58.6898 6.25485 58.6882C7.21146 58.6866 7.43997 58.4598 7.43997 57.4951C7.44155 54.4605 7.43997 51.426 7.44155 48.3914C7.44155 47.6136 7.43051 46.8342 7.44943 46.0564C7.46203 45.5309 7.8182 45.1684 8.28468 45.1476C8.74171 45.1285 9.13097 45.4766 9.20032 45.9877C9.22396 46.165 9.21292 46.3471 9.21292 46.526C9.21292 49.4008 9.2208 52.2757 9.20504 55.1505C9.20189 55.5674 9.30748 55.7718 9.72038 55.9235C12.565 56.9728 15.4001 58.0525 18.2353 59.1306C19.4047 59.5746 20.5977 59.8716 21.8584 59.8685C26.2112 59.8589 30.5656 59.8637 34.9184 59.8653C36.6551 59.8669 38.2705 59.4229 39.7377 58.4837C45.1621 55.01 50.5803 51.5282 55.9984 48.0448C56.8053 47.5258 57.0985 46.5291 56.7407 45.6268C56.3704 44.6908 55.5367 44.2293 54.5486 44.4609C54.1498 44.5535 53.7606 44.7116 53.3839 44.8793C48.2164 47.1776 43.0519 49.4855 37.8828 51.7805C37.5834 51.9131 37.2461 52.0361 36.9262 52.0377C33.7159 52.0568 30.5041 52.0536 27.2939 52.0457C26.5973 52.0441 26.2238 51.6895 26.2396 51.1113C26.2554 50.5555 26.6084 50.2601 27.2955 50.2553C28.5563 50.2473 29.817 50.2521 31.0778 50.2521C32.7735 50.2537 34.4661 50.2537 36.2737 50.2537ZM39.807 2.76594C39.7471 2.71643 39.6857 2.66692 39.6258 2.61581C38.3114 3.33292 37.109 3.08377 35.9365 2.30756C35.3896 1.94661 34.8459 2.16062 34.3353 2.49283C33.1801 3.24508 31.9855 3.26904 30.8335 2.53276C30.0881 2.05681 29.4372 2.03764 28.7075 2.53915C27.9558 3.05502 27.1111 3.19078 26.2254 2.92725C25.967 2.85059 25.7148 2.75156 25.3082 2.61102C25.4185 3.20036 25.4154 3.72263 25.6155 4.14746C26.3468 5.70787 27.1536 7.23314 27.9148 8.77917C28.1229 9.20081 28.4554 9.34136 28.8841 9.43559C31.4765 10.0058 34.0453 9.8764 36.5984 9.21838C36.7481 9.18005 36.9214 9.05867 36.9955 8.9261C37.763 7.53819 38.551 6.15986 39.246 4.73361C39.5423 4.13309 39.6274 3.42556 39.807 2.76594ZM32.1557 14.2957C32.162 14.2398 32.1699 14.1823 32.1762 14.1264C32.5292 14.1264 32.8886 14.1679 33.2353 14.1184C34.496 13.9411 35.7615 13.7734 37.0097 13.5211C37.7157 13.3773 38.0167 12.6746 37.8245 11.9144C37.6511 11.2324 37.1594 10.9417 36.4361 11.0774C35.6843 11.2196 34.9326 11.3729 34.1745 11.4751C32.0643 11.761 29.9809 11.5566 27.918 11.0615C27.3554 10.9273 26.9519 11.1302 26.6966 11.6349C26.2695 12.4765 26.6493 13.4061 27.5665 13.5786C29.0889 13.8629 30.6255 14.0609 32.1557 14.2957Z" fill="white"/>
<path d="M33.3373 38.7223C33.3373 39.187 33.3451 39.6055 33.3357 40.0223C33.3199 40.6867 32.9921 41.0669 32.4516 41.0717C31.9063 41.0764 31.5816 40.6995 31.5659 40.0383C31.5564 39.6598 31.5549 39.2813 31.5485 38.9011C31.5485 38.8836 31.5312 38.866 31.4887 38.7877C30.3193 38.7063 29.1799 38.3805 28.1555 37.7033C28.0562 37.6378 27.9506 37.5819 27.8561 37.5116C27.4274 37.189 27.3155 36.729 27.5566 36.309C27.8088 35.8698 28.28 35.7739 28.7906 35.9944C29.5597 36.3282 30.3445 36.6268 31.1262 36.9303C31.2302 36.9702 31.3579 36.9478 31.5659 36.9574C31.5659 36.745 31.5659 36.5549 31.5659 36.3665C31.5659 34.3908 31.5549 32.4152 31.5753 30.4395C31.5801 30.029 31.4855 29.7831 31.0805 29.6282C30.6786 29.4748 30.3114 29.2305 29.9332 29.0181C28.3541 28.1316 27.6938 26.7469 27.9459 24.9677C28.2044 23.155 29.2146 21.914 30.9576 21.3326C31.1435 21.2703 31.3326 21.224 31.5675 21.1569C31.5675 20.7513 31.5612 20.3552 31.569 19.9607C31.5832 19.3426 31.9063 18.9593 32.4185 18.9417C32.9401 18.9241 33.3152 19.333 33.3373 19.9655C33.3499 20.3232 33.3388 20.681 33.3388 20.9956C34.0732 21.2799 34.7714 21.5275 35.4522 21.8213C35.7185 21.9363 35.9612 22.128 36.1834 22.3213C36.6042 22.6902 36.6499 23.1997 36.33 23.5958C36.0243 23.9727 35.5767 24.0094 35.1102 23.7379C34.576 23.4281 34.0244 23.1518 33.342 22.786C33.342 24.1037 33.342 25.2153 33.342 26.3253C33.342 27.044 33.1135 27.8937 33.4161 28.4415C33.684 28.9254 34.5476 29.066 35.1417 29.3726C36.9178 30.2894 37.7972 31.9632 37.6176 34.0666C37.4458 36.0822 35.9471 37.9429 34.0181 38.5322C33.8101 38.5961 33.6004 38.6488 33.3373 38.7223ZM33.3609 30.6503C33.3609 32.7218 33.3609 34.7518 33.3609 36.7849C34.7194 36.5518 35.8241 35.1399 35.8604 33.621C35.8982 32.0782 35.0235 31.0161 33.3609 30.6503ZM31.5485 23.1023C30.4123 23.337 29.659 24.3879 29.6716 25.6417C29.6826 26.7006 30.4249 27.5359 31.5485 27.7467C31.5485 26.2103 31.5485 24.677 31.5485 23.1023Z" fill="white"/>
</svg>
